<?xml version="1.0" encoding="UTF-8"?>
<svg xmlns="http://www.w3.org/2000/svg" xmlns:xlink="http://www.w3.org/1999/xlink" width="350pt" height="350pt" viewBox="0 0 350 350" version="1.1">
<g id="surface0">
<path style="fill: none; stroke-width: 2; stroke-linecap: butt; stroke-linejoin: miter; stroke: rgb(0%,0%,50%); opacity: 1;stroke-miterlimit: 10;" d="M 54 345 L 54 344.223602 " transform="matrix(1,0,0,1,0,0)"/>
<path style="fill: none; stroke-width: 2; stroke-linecap: butt; stroke-linejoin: miter; stroke: rgb(0%,0%,50%); opacity: 1;stroke-miterlimit: 10;" d="M 58 345 L 58 344.223602 " transform="matrix(1,0,0,1,0,0)"/>
<path style="fill: none; stroke-width: 2; stroke-linecap: butt; stroke-linejoin: miter; stroke: rgb(0%,0%,50%); opacity: 1;stroke-miterlimit: 10;" d="M 64 345 L 64 344.223602 " transform="matrix(1,0,0,1,0,0)"/>
<path style="fill: none; stroke-width: 2; stroke-linecap: butt; stroke-linejoin: miter; stroke: rgb(0%,0%,50%); opacity: 1;stroke-miterlimit: 10;" d="M 66 345 L 66 343.447205 " transform="matrix(1,0,0,1,0,0)"/>
<path style="fill: none; stroke-width: 2; stroke-linecap: butt; stroke-linejoin: miter; stroke: rgb(0%,0%,50%); opacity: 1;stroke-miterlimit: 10;" d="M 68 345 L 68 344.223602 " transform="matrix(1,0,0,1,0,0)"/>
<path style="fill: none; stroke-width: 2; stroke-linecap: butt; stroke-linejoin: miter; stroke: rgb(0%,0%,50%); opacity: 1;stroke-miterlimit: 10;" d="M 70 345 L 70 344.223602 " transform="matrix(1,0,0,1,0,0)"/>
<path style="fill: none; stroke-width: 2; stroke-linecap: butt; stroke-linejoin: miter; stroke: rgb(0%,0%,50%); opacity: 1;stroke-miterlimit: 10;" d="M 74 345 L 74 343.447205 " transform="matrix(1,0,0,1,0,0)"/>
<path style="fill: none; stroke-width: 2; stroke-linecap: butt; stroke-linejoin: miter; stroke: rgb(0%,0%,50%); opacity: 1;stroke-miterlimit: 10;" d="M 76 345 L 76 342.670807 " transform="matrix(1,0,0,1,0,0)"/>
<path style="fill: none; stroke-width: 2; stroke-linecap: butt; stroke-linejoin: miter; stroke: rgb(0%,0%,50%); opacity: 1;stroke-miterlimit: 10;" d="M 78 345 L 78 341.894409 " transform="matrix(1,0,0,1,0,0)"/>
<path style="fill: none; stroke-width: 2; stroke-linecap: butt; stroke-linejoin: miter; stroke: rgb(0%,0%,50%); opacity: 1;stroke-miterlimit: 10;" d="M 80 345 L 80 341.894409 " transform="matrix(1,0,0,1,0,0)"/>
<path style="fill: none; stroke-width: 2; stroke-linecap: butt; stroke-linejoin: miter; stroke: rgb(0%,0%,50%); opacity: 1;stroke-miterlimit: 10;" d="M 82 345 L 82 342.670807 " transform="matrix(1,0,0,1,0,0)"/>
<path style="fill: none; stroke-width: 2; stroke-linecap: butt; stroke-linejoin: miter; stroke: rgb(0%,0%,50%); opacity: 1;stroke-miterlimit: 10;" d="M 84 345 L 84 340.341614 " transform="matrix(1,0,0,1,0,0)"/>
<path style="fill: none; stroke-width: 2; stroke-linecap: butt; stroke-linejoin: miter; stroke: rgb(0%,0%,50%); opacity: 1;stroke-miterlimit: 10;" d="M 86 345 L 86 339.565216 " transform="matrix(1,0,0,1,0,0)"/>
<path style="fill: none; stroke-width: 2; stroke-linecap: butt; stroke-linejoin: miter; stroke: rgb(0%,0%,50%); opacity: 1;stroke-miterlimit: 10;" d="M 88 345 L 88 334.90683 " transform="matrix(1,0,0,1,0,0)"/>
<path style="fill: none; stroke-width: 2; stroke-linecap: butt; stroke-linejoin: miter; stroke: rgb(0%,0%,50%); opacity: 1;stroke-miterlimit: 10;" d="M 90 345 L 90 332.577637 " transform="matrix(1,0,0,1,0,0)"/>
<path style="fill: none; stroke-width: 2; stroke-linecap: butt; stroke-linejoin: miter; stroke: rgb(0%,0%,50%); opacity: 1;stroke-miterlimit: 10;" d="M 92 345 L 92 341.118011 " transform="matrix(1,0,0,1,0,0)"/>
<path style="fill: none; stroke-width: 2; stroke-linecap: butt; stroke-linejoin: miter; stroke: rgb(0%,0%,50%); opacity: 1;stroke-miterlimit: 10;" d="M 94 345 L 94 337.236023 " transform="matrix(1,0,0,1,0,0)"/>
<path style="fill: none; stroke-width: 2; stroke-linecap: butt; stroke-linejoin: miter; stroke: rgb(0%,0%,50%); opacity: 1;stroke-miterlimit: 10;" d="M 96 345 L 96 331.024841 " transform="matrix(1,0,0,1,0,0)"/>
<path style="fill: none; stroke-width: 2; stroke-linecap: butt; stroke-linejoin: miter; stroke: rgb(0%,0%,50%); opacity: 1;stroke-miterlimit: 10;" d="M 98 345 L 98 327.91925 " transform="matrix(1,0,0,1,0,0)"/>
<path style="fill: none; stroke-width: 2; stroke-linecap: butt; stroke-linejoin: miter; stroke: rgb(0%,0%,50%); opacity: 1;stroke-miterlimit: 10;" d="M 100 345 L 100 320.931671 " transform="matrix(1,0,0,1,0,0)"/>
<path style="fill: none; stroke-width: 2; stroke-linecap: butt; stroke-linejoin: miter; stroke: rgb(0%,0%,50%); opacity: 1;stroke-miterlimit: 10;" d="M 102 345 L 102 320.155273 " transform="matrix(1,0,0,1,0,0)"/>
<path style="fill: none; stroke-width: 2; stroke-linecap: butt; stroke-linejoin: miter; stroke: rgb(0%,0%,50%); opacity: 1;stroke-miterlimit: 10;" d="M 104 345 L 104 317.049683 " transform="matrix(1,0,0,1,0,0)"/>
<path style="fill: none; stroke-width: 2; stroke-linecap: butt; stroke-linejoin: miter; stroke: rgb(0%,0%,50%); opacity: 1;stroke-miterlimit: 10;" d="M 106 345 L 106 309.285721 " transform="matrix(1,0,0,1,0,0)"/>
<path style="fill: none; stroke-width: 2; stroke-linecap: butt; stroke-linejoin: miter; stroke: rgb(0%,0%,50%); opacity: 1;stroke-miterlimit: 10;" d="M 108 345 L 108 307.732925 " transform="matrix(1,0,0,1,0,0)"/>
<path style="fill: none; stroke-width: 2; stroke-linecap: butt; stroke-linejoin: miter; stroke: rgb(0%,0%,50%); opacity: 1;stroke-miterlimit: 10;" d="M 110 345 L 110 292.981369 " transform="matrix(1,0,0,1,0,0)"/>
<path style="fill: none; stroke-width: 2; stroke-linecap: butt; stroke-linejoin: miter; stroke: rgb(0%,0%,50%); opacity: 1;stroke-miterlimit: 10;" d="M 112 345 L 112 289.875778 " transform="matrix(1,0,0,1,0,0)"/>
<path style="fill: none; stroke-width: 2; stroke-linecap: butt; stroke-linejoin: miter; stroke: rgb(0%,0%,50%); opacity: 1;stroke-miterlimit: 10;" d="M 114 345 L 114 271.242233 " transform="matrix(1,0,0,1,0,0)"/>
<path style="fill: none; stroke-width: 2; stroke-linecap: butt; stroke-linejoin: miter; stroke: rgb(0%,0%,50%); opacity: 1;stroke-miterlimit: 10;" d="M 116 345 L 116 284.440994 " transform="matrix(1,0,0,1,0,0)"/>
<path style="fill: none; stroke-width: 2; stroke-linecap: butt; stroke-linejoin: miter; stroke: rgb(0%,0%,50%); opacity: 1;stroke-miterlimit: 10;" d="M 118 345 L 118 266.583847 " transform="matrix(1,0,0,1,0,0)"/>
<path style="fill: none; stroke-width: 2; stroke-linecap: butt; stroke-linejoin: miter; stroke: rgb(0%,0%,50%); opacity: 1;stroke-miterlimit: 10;" d="M 120 345 L 120 265.031052 " transform="matrix(1,0,0,1,0,0)"/>
<path style="fill: none; stroke-width: 2; stroke-linecap: butt; stroke-linejoin: miter; stroke: rgb(0%,0%,50%); opacity: 1;stroke-miterlimit: 10;" d="M 122 345 L 122 252.608688 " transform="matrix(1,0,0,1,0,0)"/>
<path style="fill: none; stroke-width: 2; stroke-linecap: butt; stroke-linejoin: miter; stroke: rgb(0%,0%,50%); opacity: 1;stroke-miterlimit: 10;" d="M 124 345 L 124 240.18634 " transform="matrix(1,0,0,1,0,0)"/>
<path style="fill: none; stroke-width: 2; stroke-linecap: butt; stroke-linejoin: miter; stroke: rgb(0%,0%,50%); opacity: 1;stroke-miterlimit: 10;" d="M 126 345 L 126 236.304352 " transform="matrix(1,0,0,1,0,0)"/>
<path style="fill: none; stroke-width: 2; stroke-linecap: butt; stroke-linejoin: miter; stroke: rgb(0%,0%,50%); opacity: 1;stroke-miterlimit: 10;" d="M 128 345 L 128 233.975159 " transform="matrix(1,0,0,1,0,0)"/>
<path style="fill: none; stroke-width: 2; stroke-linecap: butt; stroke-linejoin: miter; stroke: rgb(0%,0%,50%); opacity: 1;stroke-miterlimit: 10;" d="M 130 345 L 130 209.130432 " transform="matrix(1,0,0,1,0,0)"/>
<path style="fill: none; stroke-width: 2; stroke-linecap: butt; stroke-linejoin: miter; stroke: rgb(0%,0%,50%); opacity: 1;stroke-miterlimit: 10;" d="M 132 345 L 132 216.894409 " transform="matrix(1,0,0,1,0,0)"/>
<path style="fill: none; stroke-width: 2; stroke-linecap: butt; stroke-linejoin: miter; stroke: rgb(0%,0%,50%); opacity: 1;stroke-miterlimit: 10;" d="M 134 345 L 134 204.472046 " transform="matrix(1,0,0,1,0,0)"/>
<path style="fill: none; stroke-width: 2; stroke-linecap: butt; stroke-linejoin: miter; stroke: rgb(0%,0%,50%); opacity: 1;stroke-miterlimit: 10;" d="M 136 345 L 136 185.838516 " transform="matrix(1,0,0,1,0,0)"/>
<path style="fill: none; stroke-width: 2; stroke-linecap: butt; stroke-linejoin: miter; stroke: rgb(0%,0%,50%); opacity: 1;stroke-miterlimit: 10;" d="M 138 345 L 138 178.850937 " transform="matrix(1,0,0,1,0,0)"/>
<path style="fill: none; stroke-width: 2; stroke-linecap: butt; stroke-linejoin: miter; stroke: rgb(0%,0%,50%); opacity: 1;stroke-miterlimit: 10;" d="M 140 345 L 140 164.875778 " transform="matrix(1,0,0,1,0,0)"/>
<path style="fill: none; stroke-width: 2; stroke-linecap: butt; stroke-linejoin: miter; stroke: rgb(0%,0%,50%); opacity: 1;stroke-miterlimit: 10;" d="M 142 345 L 142 160.217392 " transform="matrix(1,0,0,1,0,0)"/>
<path style="fill: none; stroke-width: 2; stroke-linecap: butt; stroke-linejoin: miter; stroke: rgb(0%,0%,50%); opacity: 1;stroke-miterlimit: 10;" d="M 144 345 L 144 167.204971 " transform="matrix(1,0,0,1,0,0)"/>
<path style="fill: none; stroke-width: 2; stroke-linecap: butt; stroke-linejoin: miter; stroke: rgb(0%,0%,50%); opacity: 1;stroke-miterlimit: 10;" d="M 146 345 L 146 132.267075 " transform="matrix(1,0,0,1,0,0)"/>
<path style="fill: none; stroke-width: 2; stroke-linecap: butt; stroke-linejoin: miter; stroke: rgb(0%,0%,50%); opacity: 1;stroke-miterlimit: 10;" d="M 148 345 L 148 123.726715 " transform="matrix(1,0,0,1,0,0)"/>
<path style="fill: none; stroke-width: 2; stroke-linecap: butt; stroke-linejoin: miter; stroke: rgb(0%,0%,50%); opacity: 1;stroke-miterlimit: 10;" d="M 150 345 L 150 141.583847 " transform="matrix(1,0,0,1,0,0)"/>
<path style="fill: none; stroke-width: 2; stroke-linecap: butt; stroke-linejoin: miter; stroke: rgb(0%,0%,50%); opacity: 1;stroke-miterlimit: 10;" d="M 152 345 L 152 136.925461 " transform="matrix(1,0,0,1,0,0)"/>
<path style="fill: none; stroke-width: 2; stroke-linecap: butt; stroke-linejoin: miter; stroke: rgb(0%,0%,50%); opacity: 1;stroke-miterlimit: 10;" d="M 154 345 L 154 132.267075 " transform="matrix(1,0,0,1,0,0)"/>
<path style="fill: none; stroke-width: 2; stroke-linecap: butt; stroke-linejoin: miter; stroke: rgb(0%,0%,50%); opacity: 1;stroke-miterlimit: 10;" d="M 156 345 L 156 95 " transform="matrix(1,0,0,1,0,0)"/>
<path style="fill: none; stroke-width: 2; stroke-linecap: butt; stroke-linejoin: miter; stroke: rgb(0%,0%,50%); opacity: 1;stroke-miterlimit: 10;" d="M 158 345 L 158 112.857147 " transform="matrix(1,0,0,1,0,0)"/>
<path style="fill: none; stroke-width: 2; stroke-linecap: butt; stroke-linejoin: miter; stroke: rgb(0%,0%,50%); opacity: 1;stroke-miterlimit: 10;" d="M 160 345 L 160 126.055908 " transform="matrix(1,0,0,1,0,0)"/>
<path style="fill: none; stroke-width: 2; stroke-linecap: butt; stroke-linejoin: miter; stroke: rgb(0%,0%,50%); opacity: 1;stroke-miterlimit: 10;" d="M 162 345 L 162 117.515533 " transform="matrix(1,0,0,1,0,0)"/>
<path style="fill: none; stroke-width: 2; stroke-linecap: butt; stroke-linejoin: miter; stroke: rgb(0%,0%,50%); opacity: 1;stroke-miterlimit: 10;" d="M 164 345 L 164 129.161484 " transform="matrix(1,0,0,1,0,0)"/>
<path style="fill: none; stroke-width: 2; stroke-linecap: butt; stroke-linejoin: miter; stroke: rgb(0%,0%,50%); opacity: 1;stroke-miterlimit: 10;" d="M 166 345 L 166 111.304352 " transform="matrix(1,0,0,1,0,0)"/>
<path style="fill: none; stroke-width: 2; stroke-linecap: butt; stroke-linejoin: miter; stroke: rgb(0%,0%,50%); opacity: 1;stroke-miterlimit: 10;" d="M 168 345 L 168 149.347824 " transform="matrix(1,0,0,1,0,0)"/>
<path style="fill: none; stroke-width: 2; stroke-linecap: butt; stroke-linejoin: miter; stroke: rgb(0%,0%,50%); opacity: 1;stroke-miterlimit: 10;" d="M 170 345 L 170 135.372665 " transform="matrix(1,0,0,1,0,0)"/>
<path style="fill: none; stroke-width: 2; stroke-linecap: butt; stroke-linejoin: miter; stroke: rgb(0%,0%,50%); opacity: 1;stroke-miterlimit: 10;" d="M 172 345 L 172 140.031052 " transform="matrix(1,0,0,1,0,0)"/>
<path style="fill: none; stroke-width: 2; stroke-linecap: butt; stroke-linejoin: miter; stroke: rgb(0%,0%,50%); opacity: 1;stroke-miterlimit: 10;" d="M 174 345 L 174 143.136642 " transform="matrix(1,0,0,1,0,0)"/>
<path style="fill: none; stroke-width: 2; stroke-linecap: butt; stroke-linejoin: miter; stroke: rgb(0%,0%,50%); opacity: 1;stroke-miterlimit: 10;" d="M 176 345 L 176 171.08696 " transform="matrix(1,0,0,1,0,0)"/>
<path style="fill: none; stroke-width: 2; stroke-linecap: butt; stroke-linejoin: miter; stroke: rgb(0%,0%,50%); opacity: 1;stroke-miterlimit: 10;" d="M 178 345 L 178 158.664597 " transform="matrix(1,0,0,1,0,0)"/>
<path style="fill: none; stroke-width: 2; stroke-linecap: butt; stroke-linejoin: miter; stroke: rgb(0%,0%,50%); opacity: 1;stroke-miterlimit: 10;" d="M 180 345 L 180 181.18013 " transform="matrix(1,0,0,1,0,0)"/>
<path style="fill: none; stroke-width: 2; stroke-linecap: butt; stroke-linejoin: miter; stroke: rgb(0%,0%,50%); opacity: 1;stroke-miterlimit: 10;" d="M 182 345 L 182 182.732925 " transform="matrix(1,0,0,1,0,0)"/>
<path style="fill: none; stroke-width: 2; stroke-linecap: butt; stroke-linejoin: miter; stroke: rgb(0%,0%,50%); opacity: 1;stroke-miterlimit: 10;" d="M 184 345 L 184 217.670807 " transform="matrix(1,0,0,1,0,0)"/>
<path style="fill: none; stroke-width: 2; stroke-linecap: butt; stroke-linejoin: miter; stroke: rgb(0%,0%,50%); opacity: 1;stroke-miterlimit: 10;" d="M 186 345 L 186 195.931671 " transform="matrix(1,0,0,1,0,0)"/>
<path style="fill: none; stroke-width: 2; stroke-linecap: butt; stroke-linejoin: miter; stroke: rgb(0%,0%,50%); opacity: 1;stroke-miterlimit: 10;" d="M 188 345 L 188 217.670807 " transform="matrix(1,0,0,1,0,0)"/>
<path style="fill: none; stroke-width: 2; stroke-linecap: butt; stroke-linejoin: miter; stroke: rgb(0%,0%,50%); opacity: 1;stroke-miterlimit: 10;" d="M 190 345 L 190 226.987579 " transform="matrix(1,0,0,1,0,0)"/>
<path style="fill: none; stroke-width: 2; stroke-linecap: butt; stroke-linejoin: miter; stroke: rgb(0%,0%,50%); opacity: 1;stroke-miterlimit: 10;" d="M 192 345 L 192 238.633545 " transform="matrix(1,0,0,1,0,0)"/>
<path style="fill: none; stroke-width: 2; stroke-linecap: butt; stroke-linejoin: miter; stroke: rgb(0%,0%,50%); opacity: 1;stroke-miterlimit: 10;" d="M 194 345 L 194 233.975159 " transform="matrix(1,0,0,1,0,0)"/>
<path style="fill: none; stroke-width: 2; stroke-linecap: butt; stroke-linejoin: miter; stroke: rgb(0%,0%,50%); opacity: 1;stroke-miterlimit: 10;" d="M 196 345 L 196 258.81987 " transform="matrix(1,0,0,1,0,0)"/>
<path style="fill: none; stroke-width: 2; stroke-linecap: butt; stroke-linejoin: miter; stroke: rgb(0%,0%,50%); opacity: 1;stroke-miterlimit: 10;" d="M 198 345 L 198 260.372665 " transform="matrix(1,0,0,1,0,0)"/>
<path style="fill: none; stroke-width: 2; stroke-linecap: butt; stroke-linejoin: miter; stroke: rgb(0%,0%,50%); opacity: 1;stroke-miterlimit: 10;" d="M 200 345 L 200 261.149063 " transform="matrix(1,0,0,1,0,0)"/>
<path style="fill: none; stroke-width: 2; stroke-linecap: butt; stroke-linejoin: miter; stroke: rgb(0%,0%,50%); opacity: 1;stroke-miterlimit: 10;" d="M 202 345 L 202 268.91304 " transform="matrix(1,0,0,1,0,0)"/>
<path style="fill: none; stroke-width: 2; stroke-linecap: butt; stroke-linejoin: miter; stroke: rgb(0%,0%,50%); opacity: 1;stroke-miterlimit: 10;" d="M 204 345 L 204 279.00621 " transform="matrix(1,0,0,1,0,0)"/>
<path style="fill: none; stroke-width: 2; stroke-linecap: butt; stroke-linejoin: miter; stroke: rgb(0%,0%,50%); opacity: 1;stroke-miterlimit: 10;" d="M 206 345 L 206 299.968948 " transform="matrix(1,0,0,1,0,0)"/>
<path style="fill: none; stroke-width: 2; stroke-linecap: butt; stroke-linejoin: miter; stroke: rgb(0%,0%,50%); opacity: 1;stroke-miterlimit: 10;" d="M 208 345 L 208 295.310562 " transform="matrix(1,0,0,1,0,0)"/>
<path style="fill: none; stroke-width: 2; stroke-linecap: butt; stroke-linejoin: miter; stroke: rgb(0%,0%,50%); opacity: 1;stroke-miterlimit: 10;" d="M 210 345 L 210 299.192551 " transform="matrix(1,0,0,1,0,0)"/>
<path style="fill: none; stroke-width: 2; stroke-linecap: butt; stroke-linejoin: miter; stroke: rgb(0%,0%,50%); opacity: 1;stroke-miterlimit: 10;" d="M 212 345 L 212 300.745346 " transform="matrix(1,0,0,1,0,0)"/>
<path style="fill: none; stroke-width: 2; stroke-linecap: butt; stroke-linejoin: miter; stroke: rgb(0%,0%,50%); opacity: 1;stroke-miterlimit: 10;" d="M 214 345 L 214 321.708069 " transform="matrix(1,0,0,1,0,0)"/>
<path style="fill: none; stroke-width: 2; stroke-linecap: butt; stroke-linejoin: miter; stroke: rgb(0%,0%,50%); opacity: 1;stroke-miterlimit: 10;" d="M 216 345 L 216 317.82608 " transform="matrix(1,0,0,1,0,0)"/>
<path style="fill: none; stroke-width: 2; stroke-linecap: butt; stroke-linejoin: miter; stroke: rgb(0%,0%,50%); opacity: 1;stroke-miterlimit: 10;" d="M 218 345 L 218 324.037262 " transform="matrix(1,0,0,1,0,0)"/>
<path style="fill: none; stroke-width: 2; stroke-linecap: butt; stroke-linejoin: miter; stroke: rgb(0%,0%,50%); opacity: 1;stroke-miterlimit: 10;" d="M 220 345 L 220 323.260864 " transform="matrix(1,0,0,1,0,0)"/>
<path style="fill: none; stroke-width: 2; stroke-linecap: butt; stroke-linejoin: miter; stroke: rgb(0%,0%,50%); opacity: 1;stroke-miterlimit: 10;" d="M 222 345 L 222 327.142853 " transform="matrix(1,0,0,1,0,0)"/>
<path style="fill: none; stroke-width: 2; stroke-linecap: butt; stroke-linejoin: miter; stroke: rgb(0%,0%,50%); opacity: 1;stroke-miterlimit: 10;" d="M 224 345 L 224 327.91925 " transform="matrix(1,0,0,1,0,0)"/>
<path style="fill: none; stroke-width: 2; stroke-linecap: butt; stroke-linejoin: miter; stroke: rgb(0%,0%,50%); opacity: 1;stroke-miterlimit: 10;" d="M 226 345 L 226 336.459625 " transform="matrix(1,0,0,1,0,0)"/>
<path style="fill: none; stroke-width: 2; stroke-linecap: butt; stroke-linejoin: miter; stroke: rgb(0%,0%,50%); opacity: 1;stroke-miterlimit: 10;" d="M 228 345 L 228 340.341614 " transform="matrix(1,0,0,1,0,0)"/>
<path style="fill: none; stroke-width: 2; stroke-linecap: butt; stroke-linejoin: miter; stroke: rgb(0%,0%,50%); opacity: 1;stroke-miterlimit: 10;" d="M 230 345 L 230 339.565216 " transform="matrix(1,0,0,1,0,0)"/>
<path style="fill: none; stroke-width: 2; stroke-linecap: butt; stroke-linejoin: miter; stroke: rgb(0%,0%,50%); opacity: 1;stroke-miterlimit: 10;" d="M 232 345 L 232 338.012421 " transform="matrix(1,0,0,1,0,0)"/>
<path style="fill: none; stroke-width: 2; stroke-linecap: butt; stroke-linejoin: miter; stroke: rgb(0%,0%,50%); opacity: 1;stroke-miterlimit: 10;" d="M 234 345 L 234 338.012421 " transform="matrix(1,0,0,1,0,0)"/>
<path style="fill: none; stroke-width: 2; stroke-linecap: butt; stroke-linejoin: miter; stroke: rgb(0%,0%,50%); opacity: 1;stroke-miterlimit: 10;" d="M 236 345 L 236 344.223602 " transform="matrix(1,0,0,1,0,0)"/>
<path style="fill: none; stroke-width: 2; stroke-linecap: butt; stroke-linejoin: miter; stroke: rgb(0%,0%,50%); opacity: 1;stroke-miterlimit: 10;" d="M 238 345 L 238 341.118011 " transform="matrix(1,0,0,1,0,0)"/>
<path style="fill: none; stroke-width: 2; stroke-linecap: butt; stroke-linejoin: miter; stroke: rgb(0%,0%,50%); opacity: 1;stroke-miterlimit: 10;" d="M 240 345 L 240 342.670807 " transform="matrix(1,0,0,1,0,0)"/>
<path style="fill: none; stroke-width: 2; stroke-linecap: butt; stroke-linejoin: miter; stroke: rgb(0%,0%,50%); opacity: 1;stroke-miterlimit: 10;" d="M 242 345 L 242 343.447205 " transform="matrix(1,0,0,1,0,0)"/>
<path style="fill: none; stroke-width: 2; stroke-linecap: butt; stroke-linejoin: miter; stroke: rgb(0%,0%,50%); opacity: 1;stroke-miterlimit: 10;" d="M 244 345 L 244 342.670807 " transform="matrix(1,0,0,1,0,0)"/>
<path style="fill: none; stroke-width: 2; stroke-linecap: butt; stroke-linejoin: miter; stroke: rgb(0%,0%,50%); opacity: 1;stroke-miterlimit: 10;" d="M 246 345 L 246 343.447205 " transform="matrix(1,0,0,1,0,0)"/>
<path style="fill: none; stroke-width: 2; stroke-linecap: butt; stroke-linejoin: miter; stroke: rgb(0%,0%,50%); opacity: 1;stroke-miterlimit: 10;" d="M 248 345 L 248 344.223602 " transform="matrix(1,0,0,1,0,0)"/>
<path style="fill: none; stroke-width: 2; stroke-linecap: butt; stroke-linejoin: miter; stroke: rgb(0%,0%,50%); opacity: 1;stroke-miterlimit: 10;" d="M 252 345 L 252 343.447205 " transform="matrix(1,0,0,1,0,0)"/>
<path style="fill: none; stroke-width: 2; stroke-linecap: butt; stroke-linejoin: miter; stroke: rgb(0%,0%,50%); opacity: 1;stroke-miterlimit: 10;" d="M 262 345 L 262 344.223602 " transform="matrix(1,0,0,1,0,0)"/>
</g>
</svg>
