<?xml version="1.0" encoding="UTF-8"?>
<svg xmlns="http://www.w3.org/2000/svg" xmlns:xlink="http://www.w3.org/1999/xlink" width="350pt" height="350pt" viewBox="0 0 350 350" version="1.1">
<g id="surface0">
<path style="fill: none; stroke-width: 2; stroke-linecap: butt; stroke-linejoin: miter; stroke: rgb(0%,0%,50%); opacity: 1;stroke-miterlimit: 10;" d="M 108 345 L 108 343.134323 " transform="matrix(1,0,0,1,0,0)"/>
<path style="fill: none; stroke-width: 2; stroke-linecap: butt; stroke-linejoin: miter; stroke: rgb(0%,0%,50%); opacity: 1;stroke-miterlimit: 10;" d="M 116 345 L 116 343.134323 " transform="matrix(1,0,0,1,0,0)"/>
<path style="fill: none; stroke-width: 2; stroke-linecap: butt; stroke-linejoin: miter; stroke: rgb(0%,0%,50%); opacity: 1;stroke-miterlimit: 10;" d="M 120 345 L 120 343.134323 " transform="matrix(1,0,0,1,0,0)"/>
<path style="fill: none; stroke-width: 2; stroke-linecap: butt; stroke-linejoin: miter; stroke: rgb(0%,0%,50%); opacity: 1;stroke-miterlimit: 10;" d="M 122 345 L 122 341.268661 " transform="matrix(1,0,0,1,0,0)"/>
<path style="fill: none; stroke-width: 2; stroke-linecap: butt; stroke-linejoin: miter; stroke: rgb(0%,0%,50%); opacity: 1;stroke-miterlimit: 10;" d="M 124 345 L 124 341.268661 " transform="matrix(1,0,0,1,0,0)"/>
<path style="fill: none; stroke-width: 2; stroke-linecap: butt; stroke-linejoin: miter; stroke: rgb(0%,0%,50%); opacity: 1;stroke-miterlimit: 10;" d="M 126 345 L 126 337.537308 " transform="matrix(1,0,0,1,0,0)"/>
<path style="fill: none; stroke-width: 2; stroke-linecap: butt; stroke-linejoin: miter; stroke: rgb(0%,0%,50%); opacity: 1;stroke-miterlimit: 10;" d="M 128 345 L 128 337.537308 " transform="matrix(1,0,0,1,0,0)"/>
<path style="fill: none; stroke-width: 2; stroke-linecap: butt; stroke-linejoin: miter; stroke: rgb(0%,0%,50%); opacity: 1;stroke-miterlimit: 10;" d="M 130 345 L 130 331.940292 " transform="matrix(1,0,0,1,0,0)"/>
<path style="fill: none; stroke-width: 2; stroke-linecap: butt; stroke-linejoin: miter; stroke: rgb(0%,0%,50%); opacity: 1;stroke-miterlimit: 10;" d="M 132 345 L 132 322.611938 " transform="matrix(1,0,0,1,0,0)"/>
<path style="fill: none; stroke-width: 2; stroke-linecap: butt; stroke-linejoin: miter; stroke: rgb(0%,0%,50%); opacity: 1;stroke-miterlimit: 10;" d="M 134 345 L 134 322.611938 " transform="matrix(1,0,0,1,0,0)"/>
<path style="fill: none; stroke-width: 2; stroke-linecap: butt; stroke-linejoin: miter; stroke: rgb(0%,0%,50%); opacity: 1;stroke-miterlimit: 10;" d="M 136 345 L 136 309.552246 " transform="matrix(1,0,0,1,0,0)"/>
<path style="fill: none; stroke-width: 2; stroke-linecap: butt; stroke-linejoin: miter; stroke: rgb(0%,0%,50%); opacity: 1;stroke-miterlimit: 10;" d="M 138 345 L 138 300.223877 " transform="matrix(1,0,0,1,0,0)"/>
<path style="fill: none; stroke-width: 2; stroke-linecap: butt; stroke-linejoin: miter; stroke: rgb(0%,0%,50%); opacity: 1;stroke-miterlimit: 10;" d="M 140 345 L 140 272.2388 " transform="matrix(1,0,0,1,0,0)"/>
<path style="fill: none; stroke-width: 2; stroke-linecap: butt; stroke-linejoin: miter; stroke: rgb(0%,0%,50%); opacity: 1;stroke-miterlimit: 10;" d="M 142 345 L 142 264.776123 " transform="matrix(1,0,0,1,0,0)"/>
<path style="fill: none; stroke-width: 2; stroke-linecap: butt; stroke-linejoin: miter; stroke: rgb(0%,0%,50%); opacity: 1;stroke-miterlimit: 10;" d="M 144 345 L 144 216.268661 " transform="matrix(1,0,0,1,0,0)"/>
<path style="fill: none; stroke-width: 2; stroke-linecap: butt; stroke-linejoin: miter; stroke: rgb(0%,0%,50%); opacity: 1;stroke-miterlimit: 10;" d="M 146 345 L 146 184.552246 " transform="matrix(1,0,0,1,0,0)"/>
<path style="fill: none; stroke-width: 2; stroke-linecap: butt; stroke-linejoin: miter; stroke: rgb(0%,0%,50%); opacity: 1;stroke-miterlimit: 10;" d="M 148 345 L 148 162.164185 " transform="matrix(1,0,0,1,0,0)"/>
<path style="fill: none; stroke-width: 2; stroke-linecap: butt; stroke-linejoin: miter; stroke: rgb(0%,0%,50%); opacity: 1;stroke-miterlimit: 10;" d="M 150 345 L 150 195.746262 " transform="matrix(1,0,0,1,0,0)"/>
<path style="fill: none; stroke-width: 2; stroke-linecap: butt; stroke-linejoin: miter; stroke: rgb(0%,0%,50%); opacity: 1;stroke-miterlimit: 10;" d="M 152 345 L 152 108.059708 " transform="matrix(1,0,0,1,0,0)"/>
<path style="fill: none; stroke-width: 2; stroke-linecap: butt; stroke-linejoin: miter; stroke: rgb(0%,0%,50%); opacity: 1;stroke-miterlimit: 10;" d="M 154 345 L 154 139.776123 " transform="matrix(1,0,0,1,0,0)"/>
<path style="fill: none; stroke-width: 2; stroke-linecap: butt; stroke-linejoin: miter; stroke: rgb(0%,0%,50%); opacity: 1;stroke-miterlimit: 10;" d="M 156 345 L 156 121.1194 " transform="matrix(1,0,0,1,0,0)"/>
<path style="fill: none; stroke-width: 2; stroke-linecap: butt; stroke-linejoin: miter; stroke: rgb(0%,0%,50%); opacity: 1;stroke-miterlimit: 10;" d="M 158 345 L 158 95 " transform="matrix(1,0,0,1,0,0)"/>
<path style="fill: none; stroke-width: 2; stroke-linecap: butt; stroke-linejoin: miter; stroke: rgb(0%,0%,50%); opacity: 1;stroke-miterlimit: 10;" d="M 160 345 L 160 111.791046 " transform="matrix(1,0,0,1,0,0)"/>
<path style="fill: none; stroke-width: 2; stroke-linecap: butt; stroke-linejoin: miter; stroke: rgb(0%,0%,50%); opacity: 1;stroke-miterlimit: 10;" d="M 162 345 L 162 96.865677 " transform="matrix(1,0,0,1,0,0)"/>
<path style="fill: none; stroke-width: 2; stroke-linecap: butt; stroke-linejoin: miter; stroke: rgb(0%,0%,50%); opacity: 1;stroke-miterlimit: 10;" d="M 164 345 L 164 115.522385 " transform="matrix(1,0,0,1,0,0)"/>
<path style="fill: none; stroke-width: 2; stroke-linecap: butt; stroke-linejoin: miter; stroke: rgb(0%,0%,50%); opacity: 1;stroke-miterlimit: 10;" d="M 166 345 L 166 134.179108 " transform="matrix(1,0,0,1,0,0)"/>
<path style="fill: none; stroke-width: 2; stroke-linecap: butt; stroke-linejoin: miter; stroke: rgb(0%,0%,50%); opacity: 1;stroke-miterlimit: 10;" d="M 168 345 L 168 175.223877 " transform="matrix(1,0,0,1,0,0)"/>
<path style="fill: none; stroke-width: 2; stroke-linecap: butt; stroke-linejoin: miter; stroke: rgb(0%,0%,50%); opacity: 1;stroke-miterlimit: 10;" d="M 170 345 L 170 178.955231 " transform="matrix(1,0,0,1,0,0)"/>
<path style="fill: none; stroke-width: 2; stroke-linecap: butt; stroke-linejoin: miter; stroke: rgb(0%,0%,50%); opacity: 1;stroke-miterlimit: 10;" d="M 172 345 L 172 206.940292 " transform="matrix(1,0,0,1,0,0)"/>
<path style="fill: none; stroke-width: 2; stroke-linecap: butt; stroke-linejoin: miter; stroke: rgb(0%,0%,50%); opacity: 1;stroke-miterlimit: 10;" d="M 174 345 L 174 227.462692 " transform="matrix(1,0,0,1,0,0)"/>
<path style="fill: none; stroke-width: 2; stroke-linecap: butt; stroke-linejoin: miter; stroke: rgb(0%,0%,50%); opacity: 1;stroke-miterlimit: 10;" d="M 176 345 L 176 255.447754 " transform="matrix(1,0,0,1,0,0)"/>
<path style="fill: none; stroke-width: 2; stroke-linecap: butt; stroke-linejoin: miter; stroke: rgb(0%,0%,50%); opacity: 1;stroke-miterlimit: 10;" d="M 178 345 L 178 266.641785 " transform="matrix(1,0,0,1,0,0)"/>
<path style="fill: none; stroke-width: 2; stroke-linecap: butt; stroke-linejoin: miter; stroke: rgb(0%,0%,50%); opacity: 1;stroke-miterlimit: 10;" d="M 180 345 L 180 285.298508 " transform="matrix(1,0,0,1,0,0)"/>
<path style="fill: none; stroke-width: 2; stroke-linecap: butt; stroke-linejoin: miter; stroke: rgb(0%,0%,50%); opacity: 1;stroke-miterlimit: 10;" d="M 182 345 L 182 294.626862 " transform="matrix(1,0,0,1,0,0)"/>
<path style="fill: none; stroke-width: 2; stroke-linecap: butt; stroke-linejoin: miter; stroke: rgb(0%,0%,50%); opacity: 1;stroke-miterlimit: 10;" d="M 184 345 L 184 317.014923 " transform="matrix(1,0,0,1,0,0)"/>
<path style="fill: none; stroke-width: 2; stroke-linecap: butt; stroke-linejoin: miter; stroke: rgb(0%,0%,50%); opacity: 1;stroke-miterlimit: 10;" d="M 186 345 L 186 326.343277 " transform="matrix(1,0,0,1,0,0)"/>
<path style="fill: none; stroke-width: 2; stroke-linecap: butt; stroke-linejoin: miter; stroke: rgb(0%,0%,50%); opacity: 1;stroke-miterlimit: 10;" d="M 188 345 L 188 341.268661 " transform="matrix(1,0,0,1,0,0)"/>
<path style="fill: none; stroke-width: 2; stroke-linecap: butt; stroke-linejoin: miter; stroke: rgb(0%,0%,50%); opacity: 1;stroke-miterlimit: 10;" d="M 190 345 L 190 328.208954 " transform="matrix(1,0,0,1,0,0)"/>
<path style="fill: none; stroke-width: 2; stroke-linecap: butt; stroke-linejoin: miter; stroke: rgb(0%,0%,50%); opacity: 1;stroke-miterlimit: 10;" d="M 192 345 L 192 335.671646 " transform="matrix(1,0,0,1,0,0)"/>
<path style="fill: none; stroke-width: 2; stroke-linecap: butt; stroke-linejoin: miter; stroke: rgb(0%,0%,50%); opacity: 1;stroke-miterlimit: 10;" d="M 194 345 L 194 341.268661 " transform="matrix(1,0,0,1,0,0)"/>
<path style="fill: none; stroke-width: 2; stroke-linecap: butt; stroke-linejoin: miter; stroke: rgb(0%,0%,50%); opacity: 1;stroke-miterlimit: 10;" d="M 196 345 L 196 343.134323 " transform="matrix(1,0,0,1,0,0)"/>
<path style="fill: none; stroke-width: 2; stroke-linecap: butt; stroke-linejoin: miter; stroke: rgb(0%,0%,50%); opacity: 1;stroke-miterlimit: 10;" d="M 206 345 L 206 343.134323 " transform="matrix(1,0,0,1,0,0)"/>
</g>
</svg>
