<?xml version="1.0" encoding="UTF-8"?>
<svg xmlns="http://www.w3.org/2000/svg" xmlns:xlink="http://www.w3.org/1999/xlink" width="350pt" height="350pt" viewBox="0 0 350 350" version="1.1">
<g id="surface0">
<path style="fill: none; stroke-width: 2; stroke-linecap: butt; stroke-linejoin: miter; stroke: rgb(0%,0%,50%); opacity: 1;stroke-miterlimit: 10;" d="M 112 345 L 112 343.287674 " transform="matrix(1,0,0,1,0,0)"/>
<path style="fill: none; stroke-width: 2; stroke-linecap: butt; stroke-linejoin: miter; stroke: rgb(0%,0%,50%); opacity: 1;stroke-miterlimit: 10;" d="M 116 345 L 116 343.287674 " transform="matrix(1,0,0,1,0,0)"/>
<path style="fill: none; stroke-width: 2; stroke-linecap: butt; stroke-linejoin: miter; stroke: rgb(0%,0%,50%); opacity: 1;stroke-miterlimit: 10;" d="M 120 345 L 120 341.575348 " transform="matrix(1,0,0,1,0,0)"/>
<path style="fill: none; stroke-width: 2; stroke-linecap: butt; stroke-linejoin: miter; stroke: rgb(0%,0%,50%); opacity: 1;stroke-miterlimit: 10;" d="M 122 345 L 122 343.287674 " transform="matrix(1,0,0,1,0,0)"/>
<path style="fill: none; stroke-width: 2; stroke-linecap: butt; stroke-linejoin: miter; stroke: rgb(0%,0%,50%); opacity: 1;stroke-miterlimit: 10;" d="M 124 345 L 124 338.150681 " transform="matrix(1,0,0,1,0,0)"/>
<path style="fill: none; stroke-width: 2; stroke-linecap: butt; stroke-linejoin: miter; stroke: rgb(0%,0%,50%); opacity: 1;stroke-miterlimit: 10;" d="M 126 345 L 126 336.438354 " transform="matrix(1,0,0,1,0,0)"/>
<path style="fill: none; stroke-width: 2; stroke-linecap: butt; stroke-linejoin: miter; stroke: rgb(0%,0%,50%); opacity: 1;stroke-miterlimit: 10;" d="M 128 345 L 128 336.438354 " transform="matrix(1,0,0,1,0,0)"/>
<path style="fill: none; stroke-width: 2; stroke-linecap: butt; stroke-linejoin: miter; stroke: rgb(0%,0%,50%); opacity: 1;stroke-miterlimit: 10;" d="M 130 345 L 130 338.150681 " transform="matrix(1,0,0,1,0,0)"/>
<path style="fill: none; stroke-width: 2; stroke-linecap: butt; stroke-linejoin: miter; stroke: rgb(0%,0%,50%); opacity: 1;stroke-miterlimit: 10;" d="M 132 345 L 132 324.452057 " transform="matrix(1,0,0,1,0,0)"/>
<path style="fill: none; stroke-width: 2; stroke-linecap: butt; stroke-linejoin: miter; stroke: rgb(0%,0%,50%); opacity: 1;stroke-miterlimit: 10;" d="M 134 345 L 134 317.602737 " transform="matrix(1,0,0,1,0,0)"/>
<path style="fill: none; stroke-width: 2; stroke-linecap: butt; stroke-linejoin: miter; stroke: rgb(0%,0%,50%); opacity: 1;stroke-miterlimit: 10;" d="M 136 345 L 136 288.493149 " transform="matrix(1,0,0,1,0,0)"/>
<path style="fill: none; stroke-width: 2; stroke-linecap: butt; stroke-linejoin: miter; stroke: rgb(0%,0%,50%); opacity: 1;stroke-miterlimit: 10;" d="M 138 345 L 138 315.890411 " transform="matrix(1,0,0,1,0,0)"/>
<path style="fill: none; stroke-width: 2; stroke-linecap: butt; stroke-linejoin: miter; stroke: rgb(0%,0%,50%); opacity: 1;stroke-miterlimit: 10;" d="M 140 345 L 140 279.931503 " transform="matrix(1,0,0,1,0,0)"/>
<path style="fill: none; stroke-width: 2; stroke-linecap: butt; stroke-linejoin: miter; stroke: rgb(0%,0%,50%); opacity: 1;stroke-miterlimit: 10;" d="M 142 345 L 142 242.260269 " transform="matrix(1,0,0,1,0,0)"/>
<path style="fill: none; stroke-width: 2; stroke-linecap: butt; stroke-linejoin: miter; stroke: rgb(0%,0%,50%); opacity: 1;stroke-miterlimit: 10;" d="M 144 345 L 144 262.808212 " transform="matrix(1,0,0,1,0,0)"/>
<path style="fill: none; stroke-width: 2; stroke-linecap: butt; stroke-linejoin: miter; stroke: rgb(0%,0%,50%); opacity: 1;stroke-miterlimit: 10;" d="M 146 345 L 146 206.301376 " transform="matrix(1,0,0,1,0,0)"/>
<path style="fill: none; stroke-width: 2; stroke-linecap: butt; stroke-linejoin: miter; stroke: rgb(0%,0%,50%); opacity: 1;stroke-miterlimit: 10;" d="M 148 345 L 148 189.178085 " transform="matrix(1,0,0,1,0,0)"/>
<path style="fill: none; stroke-width: 2; stroke-linecap: butt; stroke-linejoin: miter; stroke: rgb(0%,0%,50%); opacity: 1;stroke-miterlimit: 10;" d="M 150 345 L 150 156.643829 " transform="matrix(1,0,0,1,0,0)"/>
<path style="fill: none; stroke-width: 2; stroke-linecap: butt; stroke-linejoin: miter; stroke: rgb(0%,0%,50%); opacity: 1;stroke-miterlimit: 10;" d="M 152 345 L 152 134.38356 " transform="matrix(1,0,0,1,0,0)"/>
<path style="fill: none; stroke-width: 2; stroke-linecap: butt; stroke-linejoin: miter; stroke: rgb(0%,0%,50%); opacity: 1;stroke-miterlimit: 10;" d="M 154 345 L 154 160.068497 " transform="matrix(1,0,0,1,0,0)"/>
<path style="fill: none; stroke-width: 2; stroke-linecap: butt; stroke-linejoin: miter; stroke: rgb(0%,0%,50%); opacity: 1;stroke-miterlimit: 10;" d="M 156 345 L 156 153.219177 " transform="matrix(1,0,0,1,0,0)"/>
<path style="fill: none; stroke-width: 2; stroke-linecap: butt; stroke-linejoin: miter; stroke: rgb(0%,0%,50%); opacity: 1;stroke-miterlimit: 10;" d="M 158 345 L 158 129.246582 " transform="matrix(1,0,0,1,0,0)"/>
<path style="fill: none; stroke-width: 2; stroke-linecap: butt; stroke-linejoin: miter; stroke: rgb(0%,0%,50%); opacity: 1;stroke-miterlimit: 10;" d="M 160 345 L 160 95 " transform="matrix(1,0,0,1,0,0)"/>
<path style="fill: none; stroke-width: 2; stroke-linecap: butt; stroke-linejoin: miter; stroke: rgb(0%,0%,50%); opacity: 1;stroke-miterlimit: 10;" d="M 162 345 L 162 149.794525 " transform="matrix(1,0,0,1,0,0)"/>
<path style="fill: none; stroke-width: 2; stroke-linecap: butt; stroke-linejoin: miter; stroke: rgb(0%,0%,50%); opacity: 1;stroke-miterlimit: 10;" d="M 164 345 L 164 165.205475 " transform="matrix(1,0,0,1,0,0)"/>
<path style="fill: none; stroke-width: 2; stroke-linecap: butt; stroke-linejoin: miter; stroke: rgb(0%,0%,50%); opacity: 1;stroke-miterlimit: 10;" d="M 166 345 L 166 124.109589 " transform="matrix(1,0,0,1,0,0)"/>
<path style="fill: none; stroke-width: 2; stroke-linecap: butt; stroke-linejoin: miter; stroke: rgb(0%,0%,50%); opacity: 1;stroke-miterlimit: 10;" d="M 168 345 L 168 189.178085 " transform="matrix(1,0,0,1,0,0)"/>
<path style="fill: none; stroke-width: 2; stroke-linecap: butt; stroke-linejoin: miter; stroke: rgb(0%,0%,50%); opacity: 1;stroke-miterlimit: 10;" d="M 170 345 L 170 189.178085 " transform="matrix(1,0,0,1,0,0)"/>
<path style="fill: none; stroke-width: 2; stroke-linecap: butt; stroke-linejoin: miter; stroke: rgb(0%,0%,50%); opacity: 1;stroke-miterlimit: 10;" d="M 172 345 L 172 221.712326 " transform="matrix(1,0,0,1,0,0)"/>
<path style="fill: none; stroke-width: 2; stroke-linecap: butt; stroke-linejoin: miter; stroke: rgb(0%,0%,50%); opacity: 1;stroke-miterlimit: 10;" d="M 174 345 L 174 235.410965 " transform="matrix(1,0,0,1,0,0)"/>
<path style="fill: none; stroke-width: 2; stroke-linecap: butt; stroke-linejoin: miter; stroke: rgb(0%,0%,50%); opacity: 1;stroke-miterlimit: 10;" d="M 176 345 L 176 281.643829 " transform="matrix(1,0,0,1,0,0)"/>
<path style="fill: none; stroke-width: 2; stroke-linecap: butt; stroke-linejoin: miter; stroke: rgb(0%,0%,50%); opacity: 1;stroke-miterlimit: 10;" d="M 178 345 L 178 245.684937 " transform="matrix(1,0,0,1,0,0)"/>
<path style="fill: none; stroke-width: 2; stroke-linecap: butt; stroke-linejoin: miter; stroke: rgb(0%,0%,50%); opacity: 1;stroke-miterlimit: 10;" d="M 180 345 L 180 291.917801 " transform="matrix(1,0,0,1,0,0)"/>
<path style="fill: none; stroke-width: 2; stroke-linecap: butt; stroke-linejoin: miter; stroke: rgb(0%,0%,50%); opacity: 1;stroke-miterlimit: 10;" d="M 182 345 L 182 312.465759 " transform="matrix(1,0,0,1,0,0)"/>
<path style="fill: none; stroke-width: 2; stroke-linecap: butt; stroke-linejoin: miter; stroke: rgb(0%,0%,50%); opacity: 1;stroke-miterlimit: 10;" d="M 184 345 L 184 312.465759 " transform="matrix(1,0,0,1,0,0)"/>
<path style="fill: none; stroke-width: 2; stroke-linecap: butt; stroke-linejoin: miter; stroke: rgb(0%,0%,50%); opacity: 1;stroke-miterlimit: 10;" d="M 186 345 L 186 329.589035 " transform="matrix(1,0,0,1,0,0)"/>
<path style="fill: none; stroke-width: 2; stroke-linecap: butt; stroke-linejoin: miter; stroke: rgb(0%,0%,50%); opacity: 1;stroke-miterlimit: 10;" d="M 188 345 L 188 334.726028 " transform="matrix(1,0,0,1,0,0)"/>
<path style="fill: none; stroke-width: 2; stroke-linecap: butt; stroke-linejoin: miter; stroke: rgb(0%,0%,50%); opacity: 1;stroke-miterlimit: 10;" d="M 190 345 L 190 336.438354 " transform="matrix(1,0,0,1,0,0)"/>
<path style="fill: none; stroke-width: 2; stroke-linecap: butt; stroke-linejoin: miter; stroke: rgb(0%,0%,50%); opacity: 1;stroke-miterlimit: 10;" d="M 192 345 L 192 341.575348 " transform="matrix(1,0,0,1,0,0)"/>
<path style="fill: none; stroke-width: 2; stroke-linecap: butt; stroke-linejoin: miter; stroke: rgb(0%,0%,50%); opacity: 1;stroke-miterlimit: 10;" d="M 194 345 L 194 343.287674 " transform="matrix(1,0,0,1,0,0)"/>
<path style="fill: none; stroke-width: 2; stroke-linecap: butt; stroke-linejoin: miter; stroke: rgb(0%,0%,50%); opacity: 1;stroke-miterlimit: 10;" d="M 196 345 L 196 343.287674 " transform="matrix(1,0,0,1,0,0)"/>
<path style="fill: none; stroke-width: 2; stroke-linecap: butt; stroke-linejoin: miter; stroke: rgb(0%,0%,50%); opacity: 1;stroke-miterlimit: 10;" d="M 198 345 L 198 343.287674 " transform="matrix(1,0,0,1,0,0)"/>
<path style="fill: none; stroke-width: 2; stroke-linecap: butt; stroke-linejoin: miter; stroke: rgb(0%,0%,50%); opacity: 1;stroke-miterlimit: 10;" d="M 200 345 L 200 343.287674 " transform="matrix(1,0,0,1,0,0)"/>
</g>
</svg>
