<?xml version="1.0" encoding="UTF-8"?>
<svg xmlns="http://www.w3.org/2000/svg" xmlns:xlink="http://www.w3.org/1999/xlink" width="350pt" height="350pt" viewBox="0 0 350 350" version="1.1">
<g id="surface0">
<path style="fill: none; stroke-width: 2; stroke-linecap: butt; stroke-linejoin: miter; stroke: rgb(0%,0%,50%); opacity: 1;stroke-miterlimit: 10;" d="M 120 345 L 120 339.444443 " transform="matrix(1,0,0,1,0,0)"/>
<path style="fill: none; stroke-width: 2; stroke-linecap: butt; stroke-linejoin: miter; stroke: rgb(0%,0%,50%); opacity: 1;stroke-miterlimit: 10;" d="M 124 345 L 124 339.444443 " transform="matrix(1,0,0,1,0,0)"/>
<path style="fill: none; stroke-width: 2; stroke-linecap: butt; stroke-linejoin: miter; stroke: rgb(0%,0%,50%); opacity: 1;stroke-miterlimit: 10;" d="M 126 345 L 126 341.296295 " transform="matrix(1,0,0,1,0,0)"/>
<path style="fill: none; stroke-width: 2; stroke-linecap: butt; stroke-linejoin: miter; stroke: rgb(0%,0%,50%); opacity: 1;stroke-miterlimit: 10;" d="M 128 345 L 128 337.59259 " transform="matrix(1,0,0,1,0,0)"/>
<path style="fill: none; stroke-width: 2; stroke-linecap: butt; stroke-linejoin: miter; stroke: rgb(0%,0%,50%); opacity: 1;stroke-miterlimit: 10;" d="M 130 345 L 130 332.037033 " transform="matrix(1,0,0,1,0,0)"/>
<path style="fill: none; stroke-width: 2; stroke-linecap: butt; stroke-linejoin: miter; stroke: rgb(0%,0%,50%); opacity: 1;stroke-miterlimit: 10;" d="M 132 345 L 132 330.185181 " transform="matrix(1,0,0,1,0,0)"/>
<path style="fill: none; stroke-width: 2; stroke-linecap: butt; stroke-linejoin: miter; stroke: rgb(0%,0%,50%); opacity: 1;stroke-miterlimit: 10;" d="M 134 345 L 134 306.111115 " transform="matrix(1,0,0,1,0,0)"/>
<path style="fill: none; stroke-width: 2; stroke-linecap: butt; stroke-linejoin: miter; stroke: rgb(0%,0%,50%); opacity: 1;stroke-miterlimit: 10;" d="M 136 345 L 136 300.555557 " transform="matrix(1,0,0,1,0,0)"/>
<path style="fill: none; stroke-width: 2; stroke-linecap: butt; stroke-linejoin: miter; stroke: rgb(0%,0%,50%); opacity: 1;stroke-miterlimit: 10;" d="M 138 345 L 138 291.296295 " transform="matrix(1,0,0,1,0,0)"/>
<path style="fill: none; stroke-width: 2; stroke-linecap: butt; stroke-linejoin: miter; stroke: rgb(0%,0%,50%); opacity: 1;stroke-miterlimit: 10;" d="M 140 345 L 140 256.111115 " transform="matrix(1,0,0,1,0,0)"/>
<path style="fill: none; stroke-width: 2; stroke-linecap: butt; stroke-linejoin: miter; stroke: rgb(0%,0%,50%); opacity: 1;stroke-miterlimit: 10;" d="M 142 345 L 142 261.666672 " transform="matrix(1,0,0,1,0,0)"/>
<path style="fill: none; stroke-width: 2; stroke-linecap: butt; stroke-linejoin: miter; stroke: rgb(0%,0%,50%); opacity: 1;stroke-miterlimit: 10;" d="M 144 345 L 144 232.037033 " transform="matrix(1,0,0,1,0,0)"/>
<path style="fill: none; stroke-width: 2; stroke-linecap: butt; stroke-linejoin: miter; stroke: rgb(0%,0%,50%); opacity: 1;stroke-miterlimit: 10;" d="M 146 345 L 146 204.259262 " transform="matrix(1,0,0,1,0,0)"/>
<path style="fill: none; stroke-width: 2; stroke-linecap: butt; stroke-linejoin: miter; stroke: rgb(0%,0%,50%); opacity: 1;stroke-miterlimit: 10;" d="M 148 345 L 148 187.59259 " transform="matrix(1,0,0,1,0,0)"/>
<path style="fill: none; stroke-width: 2; stroke-linecap: butt; stroke-linejoin: miter; stroke: rgb(0%,0%,50%); opacity: 1;stroke-miterlimit: 10;" d="M 150 345 L 150 130.185181 " transform="matrix(1,0,0,1,0,0)"/>
<path style="fill: none; stroke-width: 2; stroke-linecap: butt; stroke-linejoin: miter; stroke: rgb(0%,0%,50%); opacity: 1;stroke-miterlimit: 10;" d="M 152 345 L 152 185.740738 " transform="matrix(1,0,0,1,0,0)"/>
<path style="fill: none; stroke-width: 2; stroke-linecap: butt; stroke-linejoin: miter; stroke: rgb(0%,0%,50%); opacity: 1;stroke-miterlimit: 10;" d="M 154 345 L 154 109.814819 " transform="matrix(1,0,0,1,0,0)"/>
<path style="fill: none; stroke-width: 2; stroke-linecap: butt; stroke-linejoin: miter; stroke: rgb(0%,0%,50%); opacity: 1;stroke-miterlimit: 10;" d="M 156 345 L 156 95 " transform="matrix(1,0,0,1,0,0)"/>
<path style="fill: none; stroke-width: 2; stroke-linecap: butt; stroke-linejoin: miter; stroke: rgb(0%,0%,50%); opacity: 1;stroke-miterlimit: 10;" d="M 158 345 L 158 141.296295 " transform="matrix(1,0,0,1,0,0)"/>
<path style="fill: none; stroke-width: 2; stroke-linecap: butt; stroke-linejoin: miter; stroke: rgb(0%,0%,50%); opacity: 1;stroke-miterlimit: 10;" d="M 160 345 L 160 111.666672 " transform="matrix(1,0,0,1,0,0)"/>
<path style="fill: none; stroke-width: 2; stroke-linecap: butt; stroke-linejoin: miter; stroke: rgb(0%,0%,50%); opacity: 1;stroke-miterlimit: 10;" d="M 162 345 L 162 126.481476 " transform="matrix(1,0,0,1,0,0)"/>
<path style="fill: none; stroke-width: 2; stroke-linecap: butt; stroke-linejoin: miter; stroke: rgb(0%,0%,50%); opacity: 1;stroke-miterlimit: 10;" d="M 164 345 L 164 124.629623 " transform="matrix(1,0,0,1,0,0)"/>
<path style="fill: none; stroke-width: 2; stroke-linecap: butt; stroke-linejoin: miter; stroke: rgb(0%,0%,50%); opacity: 1;stroke-miterlimit: 10;" d="M 166 345 L 166 126.481476 " transform="matrix(1,0,0,1,0,0)"/>
<path style="fill: none; stroke-width: 2; stroke-linecap: butt; stroke-linejoin: miter; stroke: rgb(0%,0%,50%); opacity: 1;stroke-miterlimit: 10;" d="M 168 345 L 168 145 " transform="matrix(1,0,0,1,0,0)"/>
<path style="fill: none; stroke-width: 2; stroke-linecap: butt; stroke-linejoin: miter; stroke: rgb(0%,0%,50%); opacity: 1;stroke-miterlimit: 10;" d="M 170 345 L 170 165.370377 " transform="matrix(1,0,0,1,0,0)"/>
<path style="fill: none; stroke-width: 2; stroke-linecap: butt; stroke-linejoin: miter; stroke: rgb(0%,0%,50%); opacity: 1;stroke-miterlimit: 10;" d="M 172 345 L 172 215.370377 " transform="matrix(1,0,0,1,0,0)"/>
<path style="fill: none; stroke-width: 2; stroke-linecap: butt; stroke-linejoin: miter; stroke: rgb(0%,0%,50%); opacity: 1;stroke-miterlimit: 10;" d="M 174 345 L 174 235.740738 " transform="matrix(1,0,0,1,0,0)"/>
<path style="fill: none; stroke-width: 2; stroke-linecap: butt; stroke-linejoin: miter; stroke: rgb(0%,0%,50%); opacity: 1;stroke-miterlimit: 10;" d="M 176 345 L 176 256.111115 " transform="matrix(1,0,0,1,0,0)"/>
<path style="fill: none; stroke-width: 2; stroke-linecap: butt; stroke-linejoin: miter; stroke: rgb(0%,0%,50%); opacity: 1;stroke-miterlimit: 10;" d="M 178 345 L 178 259.814819 " transform="matrix(1,0,0,1,0,0)"/>
<path style="fill: none; stroke-width: 2; stroke-linecap: butt; stroke-linejoin: miter; stroke: rgb(0%,0%,50%); opacity: 1;stroke-miterlimit: 10;" d="M 180 345 L 180 302.40741 " transform="matrix(1,0,0,1,0,0)"/>
<path style="fill: none; stroke-width: 2; stroke-linecap: butt; stroke-linejoin: miter; stroke: rgb(0%,0%,50%); opacity: 1;stroke-miterlimit: 10;" d="M 182 345 L 182 293.148148 " transform="matrix(1,0,0,1,0,0)"/>
<path style="fill: none; stroke-width: 2; stroke-linecap: butt; stroke-linejoin: miter; stroke: rgb(0%,0%,50%); opacity: 1;stroke-miterlimit: 10;" d="M 184 345 L 184 317.222229 " transform="matrix(1,0,0,1,0,0)"/>
<path style="fill: none; stroke-width: 2; stroke-linecap: butt; stroke-linejoin: miter; stroke: rgb(0%,0%,50%); opacity: 1;stroke-miterlimit: 10;" d="M 186 345 L 186 324.629623 " transform="matrix(1,0,0,1,0,0)"/>
<path style="fill: none; stroke-width: 2; stroke-linecap: butt; stroke-linejoin: miter; stroke: rgb(0%,0%,50%); opacity: 1;stroke-miterlimit: 10;" d="M 188 345 L 188 320.925919 " transform="matrix(1,0,0,1,0,0)"/>
<path style="fill: none; stroke-width: 2; stroke-linecap: butt; stroke-linejoin: miter; stroke: rgb(0%,0%,50%); opacity: 1;stroke-miterlimit: 10;" d="M 190 345 L 190 341.296295 " transform="matrix(1,0,0,1,0,0)"/>
<path style="fill: none; stroke-width: 2; stroke-linecap: butt; stroke-linejoin: miter; stroke: rgb(0%,0%,50%); opacity: 1;stroke-miterlimit: 10;" d="M 192 345 L 192 335.740738 " transform="matrix(1,0,0,1,0,0)"/>
<path style="fill: none; stroke-width: 2; stroke-linecap: butt; stroke-linejoin: miter; stroke: rgb(0%,0%,50%); opacity: 1;stroke-miterlimit: 10;" d="M 194 345 L 194 341.296295 " transform="matrix(1,0,0,1,0,0)"/>
<path style="fill: none; stroke-width: 2; stroke-linecap: butt; stroke-linejoin: miter; stroke: rgb(0%,0%,50%); opacity: 1;stroke-miterlimit: 10;" d="M 200 345 L 200 343.148148 " transform="matrix(1,0,0,1,0,0)"/>
<path style="fill: none; stroke-width: 2; stroke-linecap: butt; stroke-linejoin: miter; stroke: rgb(0%,0%,50%); opacity: 1;stroke-miterlimit: 10;" d="M 202 345 L 202 343.148148 " transform="matrix(1,0,0,1,0,0)"/>
</g>
</svg>
