<?xml version="1.0" encoding="UTF-8"?>
<svg xmlns="http://www.w3.org/2000/svg" xmlns:xlink="http://www.w3.org/1999/xlink" width="350pt" height="350pt" viewBox="0 0 350 350" version="1.1">
<g id="surface0">
<path style="fill: none; stroke-width: 2; stroke-linecap: butt; stroke-linejoin: miter; stroke: rgb(0%,0%,50%); opacity: 1;stroke-miterlimit: 10;" d="M 130 345 L 130 342.619049 " transform="matrix(1,0,0,1,0,0)"/>
<path style="fill: none; stroke-width: 2; stroke-linecap: butt; stroke-linejoin: miter; stroke: rgb(0%,0%,50%); opacity: 1;stroke-miterlimit: 10;" d="M 136 345 L 136 337.857147 " transform="matrix(1,0,0,1,0,0)"/>
<path style="fill: none; stroke-width: 2; stroke-linecap: butt; stroke-linejoin: miter; stroke: rgb(0%,0%,50%); opacity: 1;stroke-miterlimit: 10;" d="M 138 345 L 138 325.952377 " transform="matrix(1,0,0,1,0,0)"/>
<path style="fill: none; stroke-width: 2; stroke-linecap: butt; stroke-linejoin: miter; stroke: rgb(0%,0%,50%); opacity: 1;stroke-miterlimit: 10;" d="M 140 345 L 140 325.952377 " transform="matrix(1,0,0,1,0,0)"/>
<path style="fill: none; stroke-width: 2; stroke-linecap: butt; stroke-linejoin: miter; stroke: rgb(0%,0%,50%); opacity: 1;stroke-miterlimit: 10;" d="M 142 345 L 142 328.333328 " transform="matrix(1,0,0,1,0,0)"/>
<path style="fill: none; stroke-width: 2; stroke-linecap: butt; stroke-linejoin: miter; stroke: rgb(0%,0%,50%); opacity: 1;stroke-miterlimit: 10;" d="M 144 345 L 144 309.285721 " transform="matrix(1,0,0,1,0,0)"/>
<path style="fill: none; stroke-width: 2; stroke-linecap: butt; stroke-linejoin: miter; stroke: rgb(0%,0%,50%); opacity: 1;stroke-miterlimit: 10;" d="M 146 345 L 146 283.095245 " transform="matrix(1,0,0,1,0,0)"/>
<path style="fill: none; stroke-width: 2; stroke-linecap: butt; stroke-linejoin: miter; stroke: rgb(0%,0%,50%); opacity: 1;stroke-miterlimit: 10;" d="M 148 345 L 148 254.523804 " transform="matrix(1,0,0,1,0,0)"/>
<path style="fill: none; stroke-width: 2; stroke-linecap: butt; stroke-linejoin: miter; stroke: rgb(0%,0%,50%); opacity: 1;stroke-miterlimit: 10;" d="M 150 345 L 150 202.142853 " transform="matrix(1,0,0,1,0,0)"/>
<path style="fill: none; stroke-width: 2; stroke-linecap: butt; stroke-linejoin: miter; stroke: rgb(0%,0%,50%); opacity: 1;stroke-miterlimit: 10;" d="M 152 345 L 152 187.857147 " transform="matrix(1,0,0,1,0,0)"/>
<path style="fill: none; stroke-width: 2; stroke-linecap: butt; stroke-linejoin: miter; stroke: rgb(0%,0%,50%); opacity: 1;stroke-miterlimit: 10;" d="M 154 345 L 154 140.238098 " transform="matrix(1,0,0,1,0,0)"/>
<path style="fill: none; stroke-width: 2; stroke-linecap: butt; stroke-linejoin: miter; stroke: rgb(0%,0%,50%); opacity: 1;stroke-miterlimit: 10;" d="M 156 345 L 156 147.380951 " transform="matrix(1,0,0,1,0,0)"/>
<path style="fill: none; stroke-width: 2; stroke-linecap: butt; stroke-linejoin: miter; stroke: rgb(0%,0%,50%); opacity: 1;stroke-miterlimit: 10;" d="M 158 345 L 158 130.714279 " transform="matrix(1,0,0,1,0,0)"/>
<path style="fill: none; stroke-width: 2; stroke-linecap: butt; stroke-linejoin: miter; stroke: rgb(0%,0%,50%); opacity: 1;stroke-miterlimit: 10;" d="M 160 345 L 160 95 " transform="matrix(1,0,0,1,0,0)"/>
<path style="fill: none; stroke-width: 2; stroke-linecap: butt; stroke-linejoin: miter; stroke: rgb(0%,0%,50%); opacity: 1;stroke-miterlimit: 10;" d="M 162 345 L 162 156.904755 " transform="matrix(1,0,0,1,0,0)"/>
<path style="fill: none; stroke-width: 2; stroke-linecap: butt; stroke-linejoin: miter; stroke: rgb(0%,0%,50%); opacity: 1;stroke-miterlimit: 10;" d="M 164 345 L 164 159.285721 " transform="matrix(1,0,0,1,0,0)"/>
<path style="fill: none; stroke-width: 2; stroke-linecap: butt; stroke-linejoin: miter; stroke: rgb(0%,0%,50%); opacity: 1;stroke-miterlimit: 10;" d="M 166 345 L 166 187.857147 " transform="matrix(1,0,0,1,0,0)"/>
<path style="fill: none; stroke-width: 2; stroke-linecap: butt; stroke-linejoin: miter; stroke: rgb(0%,0%,50%); opacity: 1;stroke-miterlimit: 10;" d="M 168 345 L 168 221.190475 " transform="matrix(1,0,0,1,0,0)"/>
<path style="fill: none; stroke-width: 2; stroke-linecap: butt; stroke-linejoin: miter; stroke: rgb(0%,0%,50%); opacity: 1;stroke-miterlimit: 10;" d="M 170 345 L 170 247.380951 " transform="matrix(1,0,0,1,0,0)"/>
<path style="fill: none; stroke-width: 2; stroke-linecap: butt; stroke-linejoin: miter; stroke: rgb(0%,0%,50%); opacity: 1;stroke-miterlimit: 10;" d="M 172 345 L 172 271.190475 " transform="matrix(1,0,0,1,0,0)"/>
<path style="fill: none; stroke-width: 2; stroke-linecap: butt; stroke-linejoin: miter; stroke: rgb(0%,0%,50%); opacity: 1;stroke-miterlimit: 10;" d="M 174 345 L 174 285.476196 " transform="matrix(1,0,0,1,0,0)"/>
<path style="fill: none; stroke-width: 2; stroke-linecap: butt; stroke-linejoin: miter; stroke: rgb(0%,0%,50%); opacity: 1;stroke-miterlimit: 10;" d="M 176 345 L 176 330.714279 " transform="matrix(1,0,0,1,0,0)"/>
<path style="fill: none; stroke-width: 2; stroke-linecap: butt; stroke-linejoin: miter; stroke: rgb(0%,0%,50%); opacity: 1;stroke-miterlimit: 10;" d="M 178 345 L 178 318.809525 " transform="matrix(1,0,0,1,0,0)"/>
<path style="fill: none; stroke-width: 2; stroke-linecap: butt; stroke-linejoin: miter; stroke: rgb(0%,0%,50%); opacity: 1;stroke-miterlimit: 10;" d="M 180 345 L 180 333.095245 " transform="matrix(1,0,0,1,0,0)"/>
<path style="fill: none; stroke-width: 2; stroke-linecap: butt; stroke-linejoin: miter; stroke: rgb(0%,0%,50%); opacity: 1;stroke-miterlimit: 10;" d="M 182 345 L 182 328.333328 " transform="matrix(1,0,0,1,0,0)"/>
<path style="fill: none; stroke-width: 2; stroke-linecap: butt; stroke-linejoin: miter; stroke: rgb(0%,0%,50%); opacity: 1;stroke-miterlimit: 10;" d="M 184 345 L 184 342.619049 " transform="matrix(1,0,0,1,0,0)"/>
<path style="fill: none; stroke-width: 2; stroke-linecap: butt; stroke-linejoin: miter; stroke: rgb(0%,0%,50%); opacity: 1;stroke-miterlimit: 10;" d="M 188 345 L 188 342.619049 " transform="matrix(1,0,0,1,0,0)"/>
<path style="fill: none; stroke-width: 2; stroke-linecap: butt; stroke-linejoin: miter; stroke: rgb(0%,0%,50%); opacity: 1;stroke-miterlimit: 10;" d="M 196 345 L 196 342.619049 " transform="matrix(1,0,0,1,0,0)"/>
</g>
</svg>
